<?xml version="1.0" encoding="utf-8"?>
<!-- Generator: Adobe Illustrator 27.9.0, SVG Export Plug-In . SVG Version: 6.00 Build 0)  -->
<svg version="1.1" id="Layer_1" xmlns="http://www.w3.org/2000/svg" xmlns:xlink="http://www.w3.org/1999/xlink" x="0px" y="0px"
	 viewBox="0 0 60 60" style="enable-background:new 0 0 60 60;" xml:space="preserve">
<style type="text/css">
	.st0{fill:url(#SVGID_1_);}
	.st1{fill:url(#SVGID_00000030464552074253398300000002544251369837578923_);}
	.st2{fill:url(#SVGID_00000115490363030218962380000006330858758705431691_);}
	.st3{fill:url(#SVGID_00000072243507964000149220000015022450013375133341_);}
	.st4{fill:url(#SVGID_00000003810556377597048000000000224288450140304015_);}
</style>
<g>
	
		<linearGradient id="SVGID_1_" gradientUnits="userSpaceOnUse" x1="11.78" y1="137.0991" x2="-13.542" y2="92.6027" gradientTransform="matrix(0.7109 -0.7033 0.7033 0.7109 -34.8277 -42.3439)">
		<stop  offset="0" style="stop-color:#AC803D"/>
		<stop  offset="0.5" style="stop-color:#DFCD80"/>
		<stop  offset="1" style="stop-color:#9C7E2C"/>
	</linearGradient>
	<path class="st0" d="M31.6,31.6c2.9,3,7.3,6.3,11.5,7.6c-3.9,1.9-7.5,2.3-10.7,1.6c0-0.1,0-0.1,0-0.2l0-0.2
		c-0.1-0.8-0.3-1.6-0.4-2.5c-0.2-1.8-0.3-3.5-0.3-5.2C31.6,32.4,31.6,31.9,31.6,31.6z"/>
	
		<linearGradient id="SVGID_00000130635247659288282130000001685563843061529757_" gradientUnits="userSpaceOnUse" x1="20.3049" y1="132.1337" x2="-4.9272" y2="87.7953" gradientTransform="matrix(0.7109 -0.7033 0.7033 0.7109 -34.8277 -42.3439)">
		<stop  offset="0" style="stop-color:#AC803D"/>
		<stop  offset="0.5" style="stop-color:#DFCD80"/>
		<stop  offset="1" style="stop-color:#9C7E2C"/>
	</linearGradient>
	<path style="fill:url(#SVGID_00000130635247659288282130000001685563843061529757_);" d="M58.2,35.3c-5.9,3.4-15.1,4.6-26.4-6.4
		c0-0.7-0.1-0.8,0-1.5c0.1-1.8,0.3-3.5,0.6-5.1c0.1-0.8,0.3-1.6,0.5-2.5c0.1-0.4,0.2-0.8,0.3-1.2C37.3,25.4,44.7,37,58.2,35.3z"/>
	<path d="M18.5,15.6c-0.2-0.2-0.3-0.4-0.4-0.5L18.5,15.6z"/>
	<g>
		
			<linearGradient id="SVGID_00000016037520033586123350000006251401352914678421_" gradientUnits="userSpaceOnUse" x1="-21.5623" y1="115.5226" x2="23.8456" y2="87.2278" gradientTransform="matrix(0.7109 -0.7033 0.7033 0.7109 -34.8277 -42.3439)">
			<stop  offset="0" style="stop-color:#AC803D"/>
			<stop  offset="0.5" style="stop-color:#DFCD80"/>
			<stop  offset="1" style="stop-color:#9C7E2C"/>
		</linearGradient>
		<path style="fill:url(#SVGID_00000016037520033586123350000006251401352914678421_);" d="M42.8,49c1-1.5,1.7-3.2,2.4-5
			c-0.3,1.8-0.8,3.6-1.6,5.4c-0.4,0.9-0.8,1.7-1.4,2.5c-0.6,0.8-1.2,1.6-2.1,2.2c-0.4,0.3-0.9,0.6-1.4,0.8c-0.5,0.2-1.1,0.3-1.7,0.3
			l-0.4,0c-0.1,0-0.3,0-0.4-0.1l-0.2,0l-0.2-0.1c-0.1,0-0.3-0.1-0.4-0.1L35,54.8c-0.1,0-0.1,0-0.2-0.1l-0.2-0.1l-0.4-0.2l-0.3-0.2
			c-0.9-0.6-1.6-1.4-2.3-2.2c-0.6-0.8-1.2-1.6-1.6-2.5c-0.5-0.9-0.9-1.8-1.2-2.7c-0.4-0.9-0.7-1.8-0.9-2.7c-0.3-0.9-0.5-1.9-0.7-2.8
			c-0.2-0.9-0.4-1.9-0.5-2.8c0,0,0,0,0,0c-0.6-3.8-0.7-7.6-0.4-11.4c0-0.4,0.1-0.8,0.1-1.2c0.9,1.1,2,2.3,3.2,3.7c0,1,0,2.1,0,3.1
			c0,1.8,0.1,3.6,0.3,5.4c0.1,0.7,0.2,1.4,0.3,2.1c0,0.2,0.1,0.4,0.1,0.6c0.2,0.9,0.3,1.8,0.5,2.6c0.4,1.7,0.9,3.4,1.6,5
			c0.4,0.8,0.8,1.5,1.2,2.2c0.5,0.7,1,1.3,1.6,1.8l0.2,0.2l0.2,0.2l0.1,0.1c0,0,0.1,0,0.1,0.1l0.2,0.1l0.2,0.1l0.1,0l0.1,0
			c0.1,0,0.2,0,0.3,0.1l0.3,0c0.7,0.1,1.4-0.1,2.1-0.5c0.7-0.4,1.3-1,1.9-1.6C41.8,50.5,42.4,49.8,42.8,49z"/>
		
			<linearGradient id="SVGID_00000103244520688474449420000012719137889453190018_" gradientUnits="userSpaceOnUse" x1="-22.4663" y1="114.072" x2="22.9417" y2="85.7771" gradientTransform="matrix(0.7109 -0.7033 0.7033 0.7109 -34.8277 -42.3439)">
			<stop  offset="0" style="stop-color:#AC803D"/>
			<stop  offset="0.5" style="stop-color:#DFCD80"/>
			<stop  offset="1" style="stop-color:#9C7E2C"/>
		</linearGradient>
		<path style="fill:url(#SVGID_00000103244520688474449420000012719137889453190018_);" d="M42.3,9.1c1.3,1.6,2.1,3.4,2.7,5.2
			c0.6,1.8,1,3.7,1.3,5.5c0.1,0.9,0.2,1.9,0.3,2.8c0.1,0.9,0.1,1.9,0.1,2.8c-0.4-1.8-0.8-3.6-1.3-5.4c-0.5-1.8-1.1-3.5-1.9-5.1
			c-0.4-0.8-0.8-1.6-1.3-2.3c-0.5-0.7-1-1.4-1.6-2C40,10,39.4,9.5,38.8,9.3c-0.3-0.1-0.6-0.2-1-0.2c-0.3,0-0.6,0-0.9,0.1
			c-0.6,0.2-1.2,0.6-1.8,1.1c-0.5,0.5-1,1.2-1.5,1.9c-0.4,0.7-0.8,1.5-1.2,2.3c-0.3,0.7-0.6,1.4-0.8,2.1c0,0.1-0.1,0.2-0.1,0.3
			c-0.3,0.8-0.5,1.7-0.7,2.5c-0.2,0.9-0.4,1.7-0.5,2.6c-0.3,1.6-0.5,3.2-0.6,4.8l-3.1-3.1c0.1-0.8,0.2-1.6,0.4-2.3
			c0.4-1.9,0.8-3.8,1.5-5.6c0.2-0.6,0.5-1.2,0.7-1.8c0.5-1.2,1.1-2.4,1.9-3.5c0.6-0.8,1.2-1.6,2.1-2.4c0.8-0.7,1.9-1.3,3-1.6
			c0.6-0.1,1.2-0.2,1.8-0.1c0.6,0.1,1.2,0.3,1.7,0.5C40.8,7.5,41.6,8.3,42.3,9.1z"/>
		
			<linearGradient id="SVGID_00000139989543150604465380000017162127612054399114_" gradientUnits="userSpaceOnUse" x1="-33.5069" y1="96.3538" x2="11.9011" y2="68.0589" gradientTransform="matrix(0.7109 -0.7033 0.7033 0.7109 -34.8277 -42.3439)">
			<stop  offset="0" style="stop-color:#AC803D"/>
			<stop  offset="0.5" style="stop-color:#DFCD80"/>
			<stop  offset="1" style="stop-color:#9C7E2C"/>
		</linearGradient>
		<path style="fill:url(#SVGID_00000139989543150604465380000017162127612054399114_);" d="M29.2,14C25,10.3,20,8.7,20,8.7
			c1.8,3.1,1.9,5.5,1.9,5.5C17.4,4.5,8.3,4.6,0.8,5.8c6.9,3.5,9.6,12,11.8,14.8c1.7,0.4,4,0.4,5.5,2.5c-3.1-1.9-5.9-0.4-5.9-0.4
			c3.6,1.8,5.1,6.1,8.5,10.3c1.4-0.3,2.8,0,3.7,1c-0.9-0.4-2.3-0.2-3-0.1c0.7,0.8,1.5,1.6,2.4,2.4c0.9,0.8,1.9,1.5,2.9,2.1
			c1.1,0.7,2.3,1.3,3.5,1.7c-0.1-0.7-0.2-1.4-0.3-2.1c-0.2-1.8-0.3-3.6-0.3-5.4c0-1,0-2.1,0-3.1c-1.2-1.4-2.2-2.6-3.2-3.7
			c0-0.1-0.1-0.1-0.1-0.2c-2.3-2.6-8-10.5-8.1-10.6l11.6,11.7c0.1-1.6,0.3-3.2,0.6-4.8c0.2-0.9,0.3-1.8,0.5-2.6
			c0.2-0.9,0.4-1.7,0.7-2.5c0-0.1,0.1-0.2,0.1-0.3C30.9,15.6,30.1,14.8,29.2,14z"/>
	</g>
</g>
</svg>
