<?xml version="1.0" encoding="utf-8"?>
<!-- Generator: Adobe Illustrator 27.9.0, SVG Export Plug-In . SVG Version: 6.00 Build 0)  -->
<svg version="1.1" id="Layer_1" xmlns="http://www.w3.org/2000/svg" xmlns:xlink="http://www.w3.org/1999/xlink" x="0px" y="0px"
	 viewBox="0 0 190 60" style="enable-background:new 0 0 190 60;" xml:space="preserve">
<style type="text/css">
	.st0{fill:url(#SVGID_1_);}
	.st1{fill:url(#SVGID_00000004534923132911290230000007870564343063111860_);}
	.st2{fill:url(#SVGID_00000070086285181269142940000007321743973660230042_);}
	.st3{fill:url(#SVGID_00000107589916892722442900000003173803896759724422_);}
	.st4{fill:url(#SVGID_00000105386269188766264560000012479396233563911555_);}
	.st5{fill:#BDA556;}
	.st6{font-family:'Garamond';}
	.st7{font-size:25.7096px;}
</style>
<g>
	
		<linearGradient id="SVGID_1_" gradientUnits="userSpaceOnUse" x1="57.0143" y1="120.2622" x2="28.2973" y2="69.8" gradientTransform="matrix(0.7109 -0.7033 0.7033 0.7109 -16.0333 3.373)">
		<stop  offset="0" style="stop-color:#AC803D"/>
		<stop  offset="0.5" style="stop-color:#DFCD80"/>
		<stop  offset="1" style="stop-color:#9C7E2C"/>
	</linearGradient>
	<path class="st0" d="M65.6,31.5c3.3,3.3,8.3,7.1,13.1,8.6c-4.4,2.2-8.5,2.6-12.2,1.8c0-0.1,0-0.1,0-0.2l0-0.2
		c-0.1-0.9-0.3-1.9-0.4-2.9c-0.2-2-0.4-4-0.4-5.9C65.6,32.4,65.6,31.8,65.6,31.5z"/>
	
		<linearGradient id="SVGID_00000047051700708740101330000008989785065009575835_" gradientUnits="userSpaceOnUse" x1="66.6821" y1="114.6311" x2="38.0671" y2="64.3481" gradientTransform="matrix(0.7109 -0.7033 0.7033 0.7109 -16.0333 3.373)">
		<stop  offset="0" style="stop-color:#AC803D"/>
		<stop  offset="0.5" style="stop-color:#DFCD80"/>
		<stop  offset="1" style="stop-color:#9C7E2C"/>
	</linearGradient>
	<path style="fill:url(#SVGID_00000047051700708740101330000008989785065009575835_);" d="M95.8,35.7c-6.7,3.8-17.1,5.2-30-7.3
		c0-0.8-0.1-0.9-0.1-1.7c0.1-2.1,0.4-4,0.7-5.8c0.2-0.9,0.4-1.9,0.6-2.8c0.1-0.5,0.2-0.9,0.3-1.3C72.1,24.5,80.4,37.6,95.8,35.7z"/>
	<path d="M50.7,13.4c-0.2-0.2-0.3-0.4-0.4-0.5L50.7,13.4z"/>
	<g>
		
			<linearGradient id="SVGID_00000082346931383804437350000008729397576661801346_" gradientUnits="userSpaceOnUse" x1="19.2016" y1="95.7929" x2="70.6975" y2="63.7045" gradientTransform="matrix(0.7109 -0.7033 0.7033 0.7109 -16.0333 3.373)">
			<stop  offset="0" style="stop-color:#AC803D"/>
			<stop  offset="0.5" style="stop-color:#DFCD80"/>
			<stop  offset="1" style="stop-color:#9C7E2C"/>
		</linearGradient>
		<path style="fill:url(#SVGID_00000082346931383804437350000008729397576661801346_);" d="M78.3,51.2c1.1-1.8,2-3.7,2.7-5.6
			c-0.4,2.1-0.9,4.1-1.8,6.1c-0.4,1-0.9,2-1.6,2.9c-0.6,0.9-1.4,1.8-2.3,2.5c-0.5,0.4-1,0.7-1.6,0.9c-0.6,0.2-1.2,0.3-1.9,0.3
			l-0.5,0c-0.2,0-0.3,0-0.5-0.1l-0.2,0l-0.2-0.1c-0.2,0-0.3-0.1-0.5-0.1l-0.4-0.2c-0.1,0-0.1-0.1-0.2-0.1L69,57.6l-0.4-0.2l-0.4-0.2
			c-1-0.7-1.9-1.5-2.6-2.4c-0.7-0.9-1.3-1.9-1.8-2.9c-0.5-1-1-2-1.4-3c-0.4-1-0.7-2.1-1.1-3.1c-0.3-1-0.6-2.1-0.8-3.2
			c-0.2-1.1-0.4-2.1-0.6-3.2c0,0,0,0,0,0c-0.6-4.3-0.7-8.6-0.5-12.9c0-0.5,0.1-0.9,0.1-1.4c1.1,1.2,2.2,2.6,3.6,4.2
			c0,1.2,0,2.4,0,3.6c0,2,0.2,4.1,0.4,6.1c0.1,0.8,0.2,1.6,0.3,2.3c0,0.2,0.1,0.4,0.1,0.7c0.2,1,0.4,2,0.6,3c0.5,2,1.1,3.9,1.9,5.7
			c0.4,0.9,0.9,1.8,1.4,2.5c0.5,0.8,1.1,1.5,1.8,2l0.3,0.2l0.3,0.2l0.1,0.1c0,0,0.1,0,0.1,0.1l0.3,0.1l0.3,0.1l0.1,0.1l0.1,0
			c0.1,0,0.2,0.1,0.3,0.1l0.3,0c0.8,0.1,1.6-0.1,2.4-0.6c0.8-0.4,1.5-1.1,2.2-1.8C77.2,52.9,77.8,52.1,78.3,51.2z"/>
		
			<linearGradient id="SVGID_00000050657141990164395340000006754472624884799892_" gradientUnits="userSpaceOnUse" x1="18.1765" y1="94.1478" x2="69.6725" y2="62.0593" gradientTransform="matrix(0.7109 -0.7033 0.7033 0.7109 -16.0333 3.373)">
			<stop  offset="0" style="stop-color:#AC803D"/>
			<stop  offset="0.5" style="stop-color:#DFCD80"/>
			<stop  offset="1" style="stop-color:#9C7E2C"/>
		</linearGradient>
		<path style="fill:url(#SVGID_00000050657141990164395340000006754472624884799892_);" d="M77.7,6c1.5,1.8,2.4,3.8,3.1,5.9
			c0.7,2.1,1.2,4.2,1.5,6.3c0.2,1.1,0.3,2.1,0.3,3.2c0.1,1.1,0.1,2.1,0.1,3.2c-0.4-2.1-0.9-4.1-1.5-6.1c-0.6-2-1.3-3.9-2.2-5.8
			c-0.4-0.9-0.9-1.8-1.4-2.6c-0.5-0.8-1.1-1.6-1.8-2.3c-0.7-0.6-1.4-1.2-2.1-1.5c-0.4-0.1-0.7-0.2-1.1-0.3c-0.4,0-0.7,0-1.1,0.1
			c-0.7,0.2-1.4,0.6-2,1.2c-0.6,0.6-1.2,1.3-1.7,2.1c-0.5,0.8-0.9,1.7-1.3,2.6c-0.3,0.8-0.6,1.6-0.9,2.4c0,0.1-0.1,0.2-0.1,0.4
			c-0.3,0.9-0.6,1.9-0.8,2.9c-0.2,1-0.4,2-0.6,3c-0.3,1.8-0.5,3.6-0.7,5.5l-3.5-3.5c0.1-0.9,0.3-1.8,0.4-2.7c0.4-2.1,1-4.3,1.7-6.3
			c0.2-0.7,0.5-1.4,0.8-2c0.6-1.4,1.3-2.7,2.2-4c0.7-1,1.4-1.9,2.3-2.7c0.9-0.8,2.1-1.5,3.4-1.8C71.5,3,72.2,2.9,72.9,3
			c0.7,0.1,1.3,0.3,1.9,0.6C76,4.2,76.9,5.1,77.7,6z"/>
		
			<linearGradient id="SVGID_00000042702803474736410790000001729631299328135342_" gradientUnits="userSpaceOnUse" x1="5.6556" y1="74.054" x2="57.1517" y2="41.9655" gradientTransform="matrix(0.7109 -0.7033 0.7033 0.7109 -16.0333 3.373)">
			<stop  offset="0" style="stop-color:#AC803D"/>
			<stop  offset="0.5" style="stop-color:#DFCD80"/>
			<stop  offset="1" style="stop-color:#9C7E2C"/>
		</linearGradient>
		<path style="fill:url(#SVGID_00000042702803474736410790000001729631299328135342_);" d="M62.9,11.5c-4.8-4.2-10.5-6-10.5-6
			c2,3.5,2.1,6.3,2.1,6.3c-5-11.1-15.4-11-23.9-9.6C38.5,6.2,41.6,15.8,44,19c1.9,0.5,4.5,0.5,6.2,2.9c-3.5-2.2-6.7-0.4-6.7-0.4
			c4.1,2,5.8,6.9,9.7,11.7c1.6-0.4,3.2,0,4.2,1.1c-1-0.5-2.6-0.2-3.3-0.1c0.8,0.9,1.7,1.8,2.7,2.7c1,0.9,2.1,1.7,3.3,2.4
			c1.2,0.8,2.6,1.4,3.9,1.9c-0.1-0.8-0.2-1.6-0.3-2.3c-0.2-2-0.4-4-0.4-6.1c0-1.2,0-2.4,0-3.6c-1.3-1.6-2.5-2.9-3.6-4.2
			c-0.1-0.1-0.1-0.1-0.2-0.2c-2.6-3-9.1-11.9-9.2-12l13.1,13.2c0.1-1.8,0.4-3.7,0.7-5.5c0.2-1,0.4-2,0.6-3c0.2-1,0.5-1.9,0.8-2.9
			c0-0.1,0.1-0.2,0.1-0.4C64.8,13.3,63.9,12.4,62.9,11.5z"/>
	</g>
</g>
<text transform="matrix(0.8533 0 0 1 85.5884 56.4678)" class="st5 st6 st7">icchelli</text>
</svg>
